<?xml version="1.0" encoding="UTF-8" standalone="no"?>
<!DOCTYPE svg PUBLIC "-//W3C//DTD SVG 1.1//EN" "http://www.w3.org/Graphics/SVG/1.1/DTD/svg11.dtd">
<svg width="100%" height="100%" viewBox="0 0 1240 886" version="1.1" xmlns="http://www.w3.org/2000/svg" xmlns:xlink="http://www.w3.org/1999/xlink" xml:space="preserve" xmlns:serif="http://www.serif.com/" style="fill-rule:evenodd;clip-rule:evenodd;stroke-linecap:round;stroke-linejoin:round;stroke-miterlimit:1.5;">
    <g transform="matrix(1,0,0,1,-910.304,-719.319)">
        <g id="logo" transform="matrix(1,0,0,1,-223.907,-42.9049)">
            <g transform="matrix(0.808719,0,0,0.808719,367.976,164.61)">
                <rect x="947.467" y="738.965" width="1532.61" height="1095.53" style="fill:rgb(135,206,235);"/>
            </g>
            <g>
                <g transform="matrix(1,0,0,1,6.14589,-22.5273)">
                    <path d="M1509.72,1209.83L1220.49,1079.09" style="fill:none;stroke:rgb(232,255,0);stroke-width:13.32px;"/>
                </g>
                <path d="M1753.94,1049.83L1753.94,827.013" style="fill:none;stroke:rgb(232,255,0);stroke-width:13.32px;"/>
                <g transform="matrix(1.26463,0.0121725,-0.0153948,0.999926,-507.016,-25.9612)">
                    <path d="M2012.54,1325.22L2219.24,1322.71" style="fill:none;stroke:rgb(232,255,0);stroke-width:11.72px;"/>
                </g>
                <g transform="matrix(1,-1.52656e-16,-2.77556e-16,1,13.5129,6.72433)">
                    <path d="M1975.68,1187.31L2197.59,1049.83" style="fill:none;stroke:rgb(232,255,0);stroke-width:13.32px;"/>
                </g>
                <path d="M1903.41,1099.4C1909.76,1089.84 2047.95,893.36 2047.95,893.36" style="fill:rgb(230,255,0);stroke:rgb(232,255,0);stroke-width:13.32px;"/>
                <g transform="matrix(0.9597,-0.0580879,-0.0580879,0.916273,123.905,178.595)">
                    <path d="M1622.55,1098.46L1434.23,827.013" style="fill:none;stroke:rgb(232,255,0);stroke-width:15.14px;"/>
                </g>
                <g transform="matrix(1.05563,0.0473768,-0.0513205,0.998884,-31.9128,-61.7502)">
                    <path d="M1509.72,1325.22L1220.49,1342.22" style="fill:none;stroke:rgb(232,255,0);stroke-width:12.99px;"/>
                </g>
            </g>
            <g id="smile-and-speak" serif:id="smile and speak" transform="matrix(1,0,0,1,-24.3781,-170.204)">
                <g transform="matrix(0.621273,0,0,0.621273,1223.28,447.993)">
                    <g transform="matrix(254.853,0,0,254.853,1801.51,1239.77)">
                    </g>
                    <text x="1023.26px" y="1239.77px" style="font-family:'ArialRoundedMTBold', 'Arial Rounded MT Bold', sans-serif;font-size:254.853px;fill:rgb(252,252,252);stroke:black;stroke-width:1.61px;stroke-linecap:butt;stroke-miterlimit:2;">Speak</text>
                </g>
                <g transform="matrix(0.621273,0,0,0.621273,616.536,424.72)">
                    <g transform="matrix(254.853,0,0,254.853,1708.3,1239.77)">
                    </g>
                    <text x="1023.26px" y="1239.77px" style="font-family:'ArialRoundedMTBold', 'Arial Rounded MT Bold', sans-serif;font-size:254.853px;fill:rgb(252,252,252);stroke:black;stroke-width:1.61px;stroke-linecap:butt;stroke-miterlimit:2;">Smile</text>
                </g>
                <g transform="matrix(1,0,0,1,17.8513,194.817)">
                    <ellipse cx="1546.32" cy="935.824" rx="4.418" ry="3.93" style="fill:white;"/>
                </g>
                <g transform="matrix(1,0,0,1,66.0411,-901.737)">
                    <text x="1660.92px" y="2119.97px" style="font-family:'ArialMT', 'Arial', sans-serif;font-size:166.667px;fill:rgb(255,89,0);stroke:white;stroke-width:1px;stroke-linecap:butt;stroke-miterlimit:2;">&amp;</text>
                    <g transform="matrix(141.667,0,0,141.667,1700.28,2266.27)">
                    </g>
                    <text x="1660.92px" y="2266.27px" style="font-family:'ArialMT', 'Arial', sans-serif;font-size:141.667px;fill:rgb(255,89,0);stroke:white;stroke-width:1px;stroke-linecap:butt;stroke-miterlimit:2;">.</text>
                </g>
            </g>
            <g transform="matrix(1,0,0,1,441.65,727.263)">
                <path d="M1518.46,683.46L1106.11,683.46C1085.21,648.888 1074.21,609.67 1074.21,569.75C1074.21,444.233 1180.89,342.33 1312.29,342.33C1443.68,342.33 1550.36,444.233 1550.36,569.75C1550.36,609.67 1539.36,648.888 1518.46,683.46Z" style="fill:rgb(217,255,0);"/>
            </g>
            <g transform="matrix(1,0,0,1,-110.775,-84.9965)">
                <text x="1471.92px" y="1560.81px" style="font-family:'ArialRoundedMTBold', 'Arial Rounded MT Bold', sans-serif;font-size:95.833px;fill:rgb(0,39,204);stroke:white;stroke-width:2.5px;stroke-linecap:butt;stroke-miterlimit:2;">Eng<tspan x="1652.36px 1678.33px " y="1560.81px 1560.81px ">li</tspan>sh</text>
                <g transform="matrix(95.8333,0,0,95.8333,2274.48,1560.81)">
                </g>
                <text x="1838.09px" y="1560.81px" style="font-family:'ArialRoundedMTBold', 'Arial Rounded MT Bold', sans-serif;font-size:95.833px;fill:rgb(0,39,204);stroke:white;stroke-width:2.5px;stroke-linecap:butt;stroke-miterlimit:2;">Academy</text>
            </g>
            <g transform="matrix(1.83687,0,0,1.83687,-1214.73,-1112.6)">
                <circle cx="1565.39" cy="1280.85" r="15.219"/>
            </g>
            <g transform="matrix(1.83687,0,0,1.83687,-1041.37,-1112.6)">
                <circle cx="1565.39" cy="1280.85" r="15.219"/>
            </g>
            <g transform="matrix(1,0,0,1,0,-28)">
                <path d="M1632.75,1358.06C1632.75,1358.06 1747.69,1458.19 1862.02,1358.06" style="fill:none;stroke:black;stroke-width:8.33px;"/>
            </g>
        </g>
    </g>
</svg>
