<?xml version="1.0" encoding="UTF-8" standalone="no"?>
<!DOCTYPE svg PUBLIC "-//W3C//DTD SVG 1.1//EN" "http://www.w3.org/Graphics/SVG/1.1/DTD/svg11.dtd">
<svg width="100%" height="100%" viewBox="0 0 354 271" version="1.1" xmlns="http://www.w3.org/2000/svg" xmlns:xlink="http://www.w3.org/1999/xlink" xml:space="preserve" xmlns:serif="http://www.serif.com/" style="fill-rule:evenodd;clip-rule:evenodd;stroke-linecap:round;stroke-linejoin:round;stroke-miterlimit:1.5;">
    <g transform="matrix(1,0,0,1,0.239278,-664.977)">
        <g id="Artboard1" transform="matrix(1,0,0,1,0,587.417)">
            <rect x="0" y="0" width="500" height="500" style="fill:none;"/>
            <clipPath id="_clip1">
                <rect x="0" y="0" width="500" height="500"/>
            </clipPath>
            <g clip-path="url(#_clip1)">
                <g id="logo" transform="matrix(0.284834,0,0,0.305581,-323.301,-155.362)">
                    <g transform="matrix(0.808719,0,0,0.808719,367.976,164.61)">
                        <rect x="947.467" y="738.965" width="1532.61" height="1095.53" style="fill:rgb(135,206,235);"/>
                    </g>
                    <g transform="matrix(3.51081,0,0,3.27246,1006.95,-3555.48)">
                        <g transform="matrix(37.5,0,0,37.5,371.477,1544.42)">
                        </g>
                        <text x="60.271px" y="1544.42px" style="font-family:'Arial-BoldMT', 'Arial', sans-serif;font-weight:700;font-size:37.5px;fill:rgb(48,0,255);">English <tspan x="204.723px 231.804px " y="1544.42px 1544.42px ">Ac</tspan>ademy</text>
                    </g>
                    <g transform="matrix(1,0,0,1,20.5772,4.54747e-13)">
                        <g transform="matrix(1,0,0,1,6.14589,-22.5273)">
                            <path d="M1509.72,1209.83L1220.49,1079.09" style="fill:none;stroke:rgb(232,255,0);stroke-width:21.16px;"/>
                        </g>
                        <g transform="matrix(1,0,0,1,0,-6.54491)">
                            <path d="M1753.94,1049.83L1753.94,827.013" style="fill:none;stroke:rgb(232,255,0);stroke-width:21.16px;"/>
                        </g>
                        <g transform="matrix(1.26463,0.0121725,-0.0153948,0.999926,-507.016,-25.9612)">
                            <path d="M2012.54,1325.22L2219.24,1322.71" style="fill:none;stroke:rgb(232,255,0);stroke-width:18.75px;"/>
                        </g>
                        <g transform="matrix(1,-1.52656e-16,-2.77556e-16,1,13.5129,-3.09304)">
                            <path d="M1975.68,1187.31L2197.59,1049.83" style="fill:none;stroke:rgb(232,255,0);stroke-width:21.16px;"/>
                        </g>
                        <g transform="matrix(1,0,0,1,0,-13.0898)">
                            <path d="M1903.41,1099.4C1909.76,1089.84 2047.95,893.36 2047.95,893.36" style="fill:rgb(230,255,0);stroke:rgb(232,255,0);stroke-width:21.16px;"/>
                        </g>
                        <g transform="matrix(0.9597,-0.0580879,-0.0580879,0.916273,123.905,172.05)">
                            <path d="M1622.55,1098.46L1434.23,827.013" style="fill:none;stroke:rgb(232,255,0);stroke-width:24.08px;"/>
                        </g>
                        <g transform="matrix(1.05563,0.0473768,-0.0513205,0.998884,-31.9128,-61.7502)">
                            <path d="M1509.72,1325.22L1220.49,1342.22" style="fill:none;stroke:rgb(232,255,0);stroke-width:20.6px;"/>
                        </g>
                        <g transform="matrix(1,0,0,1,441.65,727.263)">
                            <path d="M1518.46,683.46L1106.11,683.46C1085.21,648.888 1074.21,609.67 1074.21,569.75C1074.21,444.233 1180.89,342.33 1312.29,342.33C1443.68,342.33 1550.36,444.233 1550.36,569.75C1550.36,609.67 1539.36,648.888 1518.46,683.46Z" style="fill:rgb(217,255,0);"/>
                        </g>
                        <g transform="matrix(0.878464,0,0,0.847788,283.626,153.194)">
                            <circle cx="1565.39" cy="1280.85" r="15.219"/>
                        </g>
                        <g transform="matrix(0.878464,0,0,0.847788,447.254,154.017)">
                            <circle cx="1565.39" cy="1280.85" r="15.219"/>
                        </g>
                        <g transform="matrix(1,0,0,1,0,-28)">
                            <path d="M1632.75,1358.06C1632.75,1358.06 1747.69,1458.19 1862.02,1358.06" style="fill:none;stroke:black;stroke-width:14.11px;"/>
                        </g>
                    </g>
                    <g id="smile-and-speak" serif:id="smile and speak" transform="matrix(1,0,0,1,-39.591,-224.77)">
                        <g transform="matrix(2.18118,0,0,2.03309,-377.806,-1129.38)">
                            <g transform="matrix(77.1266,0,0,77.1266,1258.78,1110.38)">
                            </g>
                            <text x="1023.26px" y="1110.38px" style="font-family:'ArialRoundedMTBold', 'Arial Rounded MT Bold', sans-serif;font-size:77.127px;fill:rgb(252,252,252);stroke:black;stroke-width:1.61px;stroke-linecap:butt;stroke-miterlimit:2;">Speak</text>
                        </g>
                        <g transform="matrix(2.18118,0,0,2.03309,-1014.18,-1129.49)">
                            <g transform="matrix(77.1266,0,0,77.1266,1230.57,1110.38)">
                            </g>
                            <text x="1023.26px" y="1110.38px" style="font-family:'ArialRoundedMTBold', 'Arial Rounded MT Bold', sans-serif;font-size:77.127px;fill:rgb(252,252,252);stroke:black;stroke-width:1.61px;stroke-linecap:butt;stroke-miterlimit:2;">Smile</text>
                        </g>
                        <g transform="matrix(1,0,0,1,17.8513,194.817)">
                            <ellipse cx="1546.32" cy="935.824" rx="4.418" ry="3.93" style="fill:white;"/>
                        </g>
                        <g transform="matrix(3.51081,0,0,3.27246,-4118.87,-5519.31)">
                            <g transform="matrix(45.8333,0,0,45.8333,1691.49,2033.41)">
                            </g>
                            <text x="1660.92px" y="2033.41px" style="font-family:'ArialMT', 'Arial', sans-serif;font-size:45.833px;fill:rgb(255,89,0);stroke:white;stroke-width:1px;stroke-linecap:butt;stroke-miterlimit:2;">&amp;</text>
                        </g>
                    </g>
                </g>
            </g>
        </g>
    </g>
</svg>
